<?xml version="1.0" encoding="utf-8"?>
<svg version="1.1" xmlns:xlink="http://www.w3.org/1999/xlink" width="10px" height="16px" xmlns="http://www.w3.org/2000/svg">
  <defs>
    <pattern id="BGPattern" patternUnits="userSpaceOnUse" alignment="0 0" imageRepeat="None" />
    <mask fill="white" id="Clip347">
      <path d="M 9.814453125 9.670454545454547  C 9.938151041666668 9.814393939393938  10 9.984848484848484  10 10.181818181818182  C 10 10.378787878787879  9.938151041666668 10.549242424242422  9.814453125 10.693181818181818  L 5.439453125 15.784090909090908  C 5.315755208333334 15.928030303030305  5.169270833333334 16  5 16  C 4.830729166666668 16  4.684244791666668 15.928030303030305  4.560546875 15.784090909090908  L 0.185546875 10.693181818181818  C 0.06184895833333333 10.549242424242422  0 10.378787878787879  0 10.181818181818182  C 0 9.984848484848484  0.06184895833333333 9.814393939393938  0.185546875 9.670454545454547  C 0.3092447916666667 9.52651515151515  0.45572916666666674 9.454545454545453  0.625 9.454545454545453  L 9.375 9.454545454545453  C 9.544270833333334 9.454545454545453  9.690755208333334 9.52651515151515  9.814453125 9.670454545454547  Z M 9.814453125 5.306818181818182  C 9.938151041666668 5.450757575757574  10 5.621212121212119  10 5.818181818181818  C 10 6.015151515151514  9.938151041666668 6.1856060606060606  9.814453125 6.329545454545455  C 9.690755208333334 6.4734848484848495  9.544270833333334 6.545454545454545  9.375 6.545454545454545  L 0.625 6.545454545454545  C 0.45572916666666674 6.545454545454545  0.3092447916666667 6.4734848484848495  0.185546875 6.329545454545455  C 0.06184895833333333 6.1856060606060606  0 6.015151515151514  0 5.818181818181818  C 0 5.621212121212119  0.06184895833333333 5.450757575757574  0.185546875 5.306818181818182  L 4.560546875 0.21590909090909172  C 4.684244791666668 0.07196969696969546  4.830729166666668 0  5 0  C 5.169270833333334 0  5.315755208333334 0.07196969696969546  5.439453125 0.21590909090909172  L 9.814453125 5.306818181818182  Z " fill-rule="evenodd" />
    </mask>
  </defs>
  <g transform="matrix(1 0 0 1 -778 -127 )">
    <path d="M 9.814453125 9.670454545454547  C 9.938151041666668 9.814393939393938  10 9.984848484848484  10 10.181818181818182  C 10 10.378787878787879  9.938151041666668 10.549242424242422  9.814453125 10.693181818181818  L 5.439453125 15.784090909090908  C 5.315755208333334 15.928030303030305  5.169270833333334 16  5 16  C 4.830729166666668 16  4.684244791666668 15.928030303030305  4.560546875 15.784090909090908  L 0.185546875 10.693181818181818  C 0.06184895833333333 10.549242424242422  0 10.378787878787879  0 10.181818181818182  C 0 9.984848484848484  0.06184895833333333 9.814393939393938  0.185546875 9.670454545454547  C 0.3092447916666667 9.52651515151515  0.45572916666666674 9.454545454545453  0.625 9.454545454545453  L 9.375 9.454545454545453  C 9.544270833333334 9.454545454545453  9.690755208333334 9.52651515151515  9.814453125 9.670454545454547  Z M 9.814453125 5.306818181818182  C 9.938151041666668 5.450757575757574  10 5.621212121212119  10 5.818181818181818  C 10 6.015151515151514  9.938151041666668 6.1856060606060606  9.814453125 6.329545454545455  C 9.690755208333334 6.4734848484848495  9.544270833333334 6.545454545454545  9.375 6.545454545454545  L 0.625 6.545454545454545  C 0.45572916666666674 6.545454545454545  0.3092447916666667 6.4734848484848495  0.185546875 6.329545454545455  C 0.06184895833333333 6.1856060606060606  0 6.015151515151514  0 5.818181818181818  C 0 5.621212121212119  0.06184895833333333 5.450757575757574  0.185546875 5.306818181818182  L 4.560546875 0.21590909090909172  C 4.684244791666668 0.07196969696969546  4.830729166666668 0  5 0  C 5.169270833333334 0  5.315755208333334 0.07196969696969546  5.439453125 0.21590909090909172  L 9.814453125 5.306818181818182  Z " fill-rule="nonzero" fill="rgba(0, 0, 0, 1)" stroke="none" transform="matrix(1 0 0 1 778 127 )" class="fill" />
    <path d="M 9.814453125 9.670454545454547  C 9.938151041666668 9.814393939393938  10 9.984848484848484  10 10.181818181818182  C 10 10.378787878787879  9.938151041666668 10.549242424242422  9.814453125 10.693181818181818  L 5.439453125 15.784090909090908  C 5.315755208333334 15.928030303030305  5.169270833333334 16  5 16  C 4.830729166666668 16  4.684244791666668 15.928030303030305  4.560546875 15.784090909090908  L 0.185546875 10.693181818181818  C 0.06184895833333333 10.549242424242422  0 10.378787878787879  0 10.181818181818182  C 0 9.984848484848484  0.06184895833333333 9.814393939393938  0.185546875 9.670454545454547  C 0.3092447916666667 9.52651515151515  0.45572916666666674 9.454545454545453  0.625 9.454545454545453  L 9.375 9.454545454545453  C 9.544270833333334 9.454545454545453  9.690755208333334 9.52651515151515  9.814453125 9.670454545454547  Z " stroke-width="0" stroke-dasharray="0" stroke="rgba(255, 255, 255, 0)" fill="none" transform="matrix(1 0 0 1 778 127 )" class="stroke" mask="url(#Clip347)" />
    <path d="M 9.814453125 5.306818181818182  C 9.938151041666668 5.450757575757574  10 5.621212121212119  10 5.818181818181818  C 10 6.015151515151514  9.938151041666668 6.1856060606060606  9.814453125 6.329545454545455  C 9.690755208333334 6.4734848484848495  9.544270833333334 6.545454545454545  9.375 6.545454545454545  L 0.625 6.545454545454545  C 0.45572916666666674 6.545454545454545  0.3092447916666667 6.4734848484848495  0.185546875 6.329545454545455  C 0.06184895833333333 6.1856060606060606  0 6.015151515151514  0 5.818181818181818  C 0 5.621212121212119  0.06184895833333333 5.450757575757574  0.185546875 5.306818181818182  L 4.560546875 0.21590909090909172  C 4.684244791666668 0.07196969696969546  4.830729166666668 0  5 0  C 5.169270833333334 0  5.315755208333334 0.07196969696969546  5.439453125 0.21590909090909172  L 9.814453125 5.306818181818182  Z " stroke-width="0" stroke-dasharray="0" stroke="rgba(255, 255, 255, 0)" fill="none" transform="matrix(1 0 0 1 778 127 )" class="stroke" mask="url(#Clip347)" />
  </g>
</svg>