<?xml version="1.0" encoding="utf-8"?>
<svg version="1.1" xmlns:xlink="http://www.w3.org/1999/xlink" width="68px" height="60px" xmlns="http://www.w3.org/2000/svg">
  <defs>
    <linearGradient gradientUnits="userSpaceOnUse" x1="1.3246753246753968" y1="30.761511216056668" x2="52.87417027417029" y2="30.761511216056668" id="LinearGradient317">
      <stop id="Stop318" stop-color="#166ae0" offset="0" />
      <stop id="Stop319" stop-color="#02439d" offset="1" />
    </linearGradient>
    <pattern id="BGPattern" patternUnits="userSpaceOnUse" alignment="0 0" imageRepeat="None" />
    <mask fill="white" id="Clip320">
      <path d="M 0 60  L 0 4  C 0 1.7599999999999998  1.7599999999999998 0  4 0  L 64 0  C 66.24 0  68 1.7599999999999998  68 4  L 68 60  L 0 60  Z " fill-rule="evenodd" />
    </mask>
  </defs>
  <g transform="matrix(1 0 0 1 -1666 -334 )">
    <path d="M 0 60  L 0 4  C 0 1.7599999999999998  1.7599999999999998 0  4 0  L 64 0  C 66.24 0  68 1.7599999999999998  68 4  L 68 60  L 0 60  Z " fill-rule="nonzero" fill="url(#LinearGradient317)" stroke="none" transform="matrix(1 0 0 1 1666 334 )" class="fill" />
    <path d="M 0 60  L 0 4  C 0 1.7599999999999998  1.7599999999999998 0  4 0  L 64 0  C 66.24 0  68 1.7599999999999998  68 4  L 68 60  L 0 60  Z " stroke-width="0" stroke-dasharray="0" stroke="rgba(121, 121, 121, 1)" fill="none" transform="matrix(1 0 0 1 1666 334 )" class="stroke" mask="url(#Clip320)" />
  </g>
</svg>